<svg width="226" height="73" viewBox="0 0 226 73" fill="none" xmlns="http://www.w3.org/2000/svg">
<g clip-path="url(#clip0_136_142)">
<path fill-rule="evenodd" clip-rule="evenodd" d="M41.2411 51.5225C40.8446 54.8287 38.8618 57.4766 35.7905 58.8024C34.0801 59.541 31.7835 59.9398 29.9657 59.8145C27.13 59.705 24.4659 59.0083 22.0101 57.7346C21.1328 57.2793 19.825 56.3702 18.8208 55.5187C18.5664 55.3036 18.5362 55.1657 18.7045 54.9245C18.7954 54.7861 18.963 54.5364 19.3333 53.9881C19.8705 53.1929 19.9375 53.0932 19.9979 53C20.1697 52.7335 20.449 52.7102 20.7244 52.9292C20.7533 52.952 20.7533 52.952 20.7752 52.9693C20.8204 53.0047 20.8204 53.0047 20.927 53.0883C21.0349 53.1733 21.0988 53.2234 21.1247 53.243C23.7731 55.3388 26.8576 56.5474 29.9716 56.6682C34.304 56.6086 37.4195 54.6404 37.9777 51.6184C38.5915 48.2923 36.0073 45.4193 30.9514 43.8178C29.3702 43.3171 25.3734 41.7007 24.6365 41.264C21.1757 39.2124 19.5577 36.5253 19.7877 33.2062C20.14 28.6054 24.3674 25.174 29.7088 25.151C32.0975 25.1461 34.4812 25.6476 36.7711 26.6226C37.5819 26.9678 39.0296 27.7638 39.5295 28.1408C39.8173 28.3544 39.8742 28.6034 39.7092 28.8719C39.617 29.0277 39.4647 29.2746 39.1436 29.7893L39.14 29.7949C38.7174 30.4728 38.7042 30.494 38.6072 30.6526C38.4397 30.9103 38.2427 30.9343 37.9406 30.7406C35.4902 29.0775 32.7738 28.2407 29.7863 28.1803C26.0669 28.2547 23.2791 30.4912 23.0958 33.5378C23.0471 36.2895 25.0898 38.2984 29.5022 39.8301C38.4587 42.738 41.8862 46.1473 41.2411 51.5225ZM30.18 4.01971C36.0111 4.01971 40.7642 9.61063 40.9865 16.6093H19.3737C19.596 9.61063 24.3491 4.01971 30.18 4.01971ZM60.3579 17.9251C60.3579 17.1984 59.7786 16.6093 59.0643 16.6093H45.0555C44.7118 7.36848 38.1833 0 30.18 0C22.1769 0 15.6485 7.36848 15.3047 16.6093L1.27584 16.6096C0.572428 16.6225 0.00609362 17.2066 0.00609362 17.9251C0.00609362 17.9594 0.00736642 17.9935 0.0099 18.0271H0L1.99982 62.5667C2.00007 62.6907 2.00463 62.8157 2.01378 62.9415C2.01581 62.9699 2.0181 62.998 2.02038 63.0262L2.0247 63.1202L2.02951 63.1251C2.33337 66.2244 4.55962 68.7207 7.58675 68.8358L7.5936 68.8426H52.0944C52.1155 68.8428 52.1366 68.8431 52.1576 68.8431C52.1787 68.8431 52.1998 68.8428 52.2208 68.8426H52.3155L52.3175 68.8408C55.3975 68.7558 57.8923 66.2247 58.1558 63.0871L58.1573 63.0856L58.1594 63.0435C58.1619 63.0104 58.1642 62.9776 58.1663 62.9446C58.1711 62.8656 58.1743 62.7868 58.1757 62.7085L60.3577 17.993H60.3562C60.3575 17.9706 60.3579 17.9478 60.3579 17.9251ZM208.712 46.9535C209.569 44.1279 212.161 42.2442 215.187 42.2442C218.074 42.2442 220.824 44.2255 221.774 46.9482L221.839 47.1353H208.656L208.712 46.9535ZM224.773 51.0473C224.79 51.048 224.79 51.048 224.816 51.0483C224.843 51.048 224.843 51.048 224.869 51.0473C225.5 51.018 226 50.4744 226 49.8128C226 49.7808 225.999 49.7531 225.996 49.7087C225.997 49.7006 225.997 49.6844 225.997 49.6324C225.997 43.392 221.155 38.3348 215.183 38.3348C209.211 38.3348 204.369 43.392 204.369 49.6324C204.369 50.0976 204.396 50.5615 204.45 51.0226L204.453 51.0473L204.47 51.169C204.768 53.4144 205.716 55.4752 207.213 57.1428C207.213 57.1421 207.214 57.1436 207.222 57.1523C208.882 58.9986 211.137 60.2569 213.637 60.7275L213.67 60.7339V60.7305L213.832 60.7579C213.916 60.7723 214.004 60.7864 214.122 60.8048C217.413 61.2047 220.332 60.7254 222.804 59.4676C223.413 59.1577 223.961 58.8158 224.435 58.4546C224.587 58.3382 224.725 58.2257 224.843 58.1204C224.904 58.066 224.953 58.0204 224.979 57.994C225.537 57.4134 225.572 57.2076 225.235 56.6775C224.865 56.0819 224.538 55.5743 224.258 55.1542C224.16 55.0071 224.074 54.8818 224.003 54.7777C223.963 54.7205 223.963 54.7205 223.938 54.6844C223.928 54.6703 223.928 54.6703 223.921 54.6613L223.918 54.6567C223.613 54.2735 223.405 54.2384 223.066 54.5401C223.03 54.5724 222.91 54.6665 222.888 54.6898C220.51 56.8234 217.262 57.5098 214.019 56.8242C213.415 56.6604 212.851 56.4523 212.33 56.2011C210.299 55.1717 208.859 53.3377 208.444 51.2149L208.411 51.0472L224.773 51.0473ZM182.979 46.9535C183.836 44.1279 186.429 42.2442 189.454 42.2442C192.342 42.2442 195.091 44.2255 196.041 46.9482L196.106 47.1353H182.924L182.979 46.9535ZM199.04 51.0473C199.058 51.048 199.058 51.048 199.084 51.0483C199.11 51.048 199.11 51.048 199.137 51.0473C199.768 51.018 200.267 50.4744 200.267 49.8128C200.267 49.7808 200.266 49.7531 200.264 49.7087C200.264 49.7006 200.264 49.6844 200.264 49.6324C200.264 43.392 195.422 38.3348 189.45 38.3348C183.479 38.3348 178.636 43.392 178.636 49.6324C178.636 50.0976 178.664 50.5615 178.717 51.0226L178.721 51.0473L178.738 51.169C179.035 53.4144 179.983 55.4752 181.481 57.1428C181.48 57.1421 181.482 57.1436 181.489 57.1523C183.15 58.9986 185.404 60.2569 187.905 60.7275L187.937 60.7339V60.7305L188.1 60.7579C188.183 60.7723 188.271 60.7864 188.39 60.8048C191.681 61.2047 194.6 60.7254 197.072 59.4676C197.681 59.1577 198.228 58.8158 198.702 58.4546C198.855 58.3382 198.992 58.2257 199.111 58.1204C199.172 58.066 199.221 58.0204 199.246 57.994C199.804 57.4134 199.839 57.2076 199.502 56.6775C199.132 56.0819 198.805 55.5743 198.525 55.1542C198.427 55.0071 198.342 54.8818 198.27 54.7777C198.23 54.7205 198.23 54.7205 198.205 54.6844C198.196 54.6703 198.196 54.6703 198.189 54.6613L198.186 54.6567C197.881 54.2735 197.673 54.2384 197.335 54.5401C197.299 54.5724 197.178 54.6665 197.156 54.6898C194.778 56.8234 191.531 57.5098 188.288 56.8242C187.684 56.6604 187.119 56.4523 186.599 56.2011C184.567 55.1717 183.128 53.3377 182.712 51.2149L182.679 51.0472L199.04 51.0473ZM163.34 57.2695C159.318 57.2695 156.029 54.0477 155.928 50.0102V49.6302C156.028 45.5992 159.318 42.3769 163.34 42.3769C167.435 42.3769 170.754 45.7107 170.754 49.8232C170.754 53.9357 167.435 57.2695 163.34 57.2695ZM163.343 38.4266C160.705 38.4266 158.184 39.3344 156.158 40.9994L155.928 41.1885V39.1047C155.928 38.549 155.81 38.4266 155.253 38.4266H152.664C152.1 38.4266 151.989 38.5399 151.989 39.1047V72.322C151.989 72.8675 152.115 73 152.664 73H155.253C155.805 73 155.928 72.8704 155.928 72.322V58.4693L156.158 58.6584C158.184 60.3237 160.705 61.2314 163.343 61.2314C169.613 61.2314 174.696 56.1263 174.696 49.8289C174.696 43.5317 169.613 38.4266 163.343 38.4266ZM136.68 57.015C132.577 57.015 129.251 53.7105 129.251 49.633C129.251 45.5555 132.577 42.2507 136.68 42.2507C140.782 42.2507 144.109 45.5555 144.109 49.633C144.109 53.7102 140.782 57.015 136.68 57.015ZM136.682 38.3347C130.4 38.3347 125.307 43.3958 125.307 49.6386C125.307 55.8812 130.4 60.9425 136.682 60.9425C142.965 60.9425 148.057 55.8812 148.057 49.6386C148.057 43.3958 142.965 38.3347 136.682 38.3347ZM111.326 38.5858C109.032 38.5858 106.813 39.3308 104.972 40.7077L104.748 40.8751V25.4483C104.748 24.937 104.582 24.7701 104.076 24.7701H101.366C100.819 24.7701 100.694 24.9023 100.694 25.4483V60.6405C100.694 61.1733 100.829 61.3193 101.366 61.3193H104.076C104.578 61.3193 104.748 61.1441 104.748 60.6405V49.1457C104.776 45.5271 107.713 42.6065 111.326 42.6065C114.947 42.6065 117.888 45.5414 117.903 49.1718V60.6405C117.903 61.2227 117.999 61.319 118.575 61.319H121.279C121.852 61.319 121.951 61.2199 121.951 60.6405V49.1382C121.929 43.3359 117.141 38.5858 111.326 38.5858ZM73.5646 54.9356L73.5583 54.9455C73.1719 55.5369 73.01 55.7857 72.9196 55.9285C72.615 56.3867 72.6528 56.5908 73.118 56.9881C74.2036 57.8724 75.5991 58.8011 76.5407 59.2662C79.1603 60.5604 81.9897 61.2443 84.9881 61.3062C86.925 61.4049 89.3576 60.9396 91.169 60.1234C94.4484 58.6453 96.5372 55.7646 96.9033 52.2163C97.4963 46.4669 93.7937 42.8727 84.2566 39.9762L84.2541 39.9754C79.8107 38.5276 77.7234 36.6028 77.7226 33.9153C77.8534 30.9451 80.5792 28.7261 84.2567 28.5877C87.219 28.5951 89.838 29.39 92.4114 31.0632C92.954 31.3958 93.2043 31.3344 93.5691 30.8562C93.611 30.7855 93.7276 30.6143 94.2154 29.9066L94.217 29.9044C94.6725 29.2433 94.8224 29.0226 94.8597 28.9574C95.1672 28.373 95.1232 28.1476 94.5683 27.7501C94.0219 27.3546 92.4825 26.5453 91.6022 26.1903C89.1539 25.2034 86.6227 24.7242 84.1035 24.7737C78.3705 24.8995 73.8993 28.6666 73.6046 33.6086C73.4176 37.1782 75.2108 40.0487 78.9573 42.1707C80.0076 42.731 83.8479 44.1977 85.6403 44.728C90.7369 46.2359 93.3941 49.01 92.8451 52.2829C92.3464 55.2565 89.2626 57.2341 84.9353 57.3695C81.7972 57.3035 78.6354 56.1415 75.8901 54.0571C75.8764 54.047 75.8068 53.9947 75.6785 53.898C75.4981 53.7622 75.4981 53.7622 75.4711 53.7418C74.9115 53.3515 74.5822 53.384 74.2405 53.8983C74.1993 53.962 73.7742 54.6149 73.5646 54.9356Z" fill="#EE4D2D"/>
</g>
<defs>
<clipPath id="clip0_136_142">
<rect width="226" height="73" fill="white"/>
</clipPath>
</defs>
</svg>
