<svg width="238" height="52" viewBox="0 0 238 52" fill="none" xmlns="http://www.w3.org/2000/svg">
<path fill-rule="evenodd" clip-rule="evenodd" d="M127.241 36.1897C124.654 38.8285 121.56 40.1548 117.974 40.1548C115.074 40.1548 112.61 39.5604 110.095 38.0913V32.0424C112.118 33.4218 114.66 34.7356 117.167 34.7356C122.397 34.7356 125.511 31.1164 125.511 25.9875C125.511 20.8544 122.291 17.1276 117.058 17.1276C114.721 17.1276 112.826 17.9724 111.347 19.6655C109.76 21.4996 108.94 24.1211 108.94 27.5874V51.4731H108.546C105.663 51.4731 103.327 49.1246 103.327 46.2265V26.6906C103.327 18.4007 108.368 11.7072 117.032 11.7072C121.31 11.7072 124.785 13.178 127.42 16.1329C129.897 18.8936 131.124 22.3915 131.124 26.601C131.124 30.3469 129.829 33.5491 127.241 36.1897ZM188.015 35.9872C185.438 38.7682 182.123 40.1548 178.103 40.1548C173.86 40.1548 170.402 38.684 167.77 35.7297C165.295 32.9349 164.066 29.434 164.066 25.2628C164.066 17.8786 169.736 11.7072 177.196 11.7072C180.073 11.7072 182.572 12.3183 185.096 13.7097V19.822C183.073 18.442 180.531 17.1282 178.024 17.1282C172.793 17.1282 169.679 20.7468 169.679 25.8775C169.679 30.9383 172.974 34.7362 178.131 34.7362C180.466 34.7362 182.389 33.8562 183.928 32.0836C185.456 30.323 186.25 27.7355 186.25 24.2597V5.2466C186.25 2.34789 188.588 0 191.469 0H191.864V25.1511C191.864 29.5804 190.589 33.2062 188.015 35.9872ZM203.865 9.02293C203.276 9.68608 202.432 9.99136 201.402 9.99136C199.474 9.99136 198.096 8.56291 198.096 6.6404C198.096 4.67307 199.449 3.34499 201.402 3.34499C203.281 3.34499 204.707 4.74536 204.707 6.6404C204.707 7.57836 204.434 8.3819 203.865 9.02293ZM232.386 24.2591C232.386 22.0343 231.548 20.2731 229.867 18.939C228.351 17.7382 226.459 17.1276 224.157 17.1276C219.077 17.1276 215.815 21.1202 215.815 26.0436C215.815 30.7812 219.272 34.7356 224.103 34.7356C227.464 34.7356 229.261 32.7623 231.177 30.3039V37.3917C230.201 38.1272 229.078 38.9289 227.931 39.3997C226.722 39.9075 225.278 40.1548 223.609 40.1548C215.529 40.1548 210.202 33.4278 210.202 25.6535C210.202 21.6615 211.435 18.3613 213.918 15.7876C216.553 13.0603 220.009 11.7072 224.239 11.7072C232.261 11.7072 238 16.3378 238 24.7048V39.5974H237.607C234.723 39.5974 232.386 37.2483 232.386 34.3496V24.2591ZM155.547 22.6604C154.838 20.4553 153.949 19.3698 151.904 18.2215C147.039 15.4895 142.251 17.8153 140.024 22.6395L155.547 22.6604ZM151.264 40.0718C147.679 40.8377 144.161 40.2468 140.729 38.3183C137.38 36.4388 135.138 33.6435 134.014 29.9496C131.743 22.4788 136.397 14.1536 143.883 12.1379C147.594 11.139 151.152 11.5913 154.532 13.4899C160.147 16.6455 162.193 21.5259 161.835 27.8144L139.222 27.769C139.555 30.3337 141.136 32.3405 143.36 33.5885C145.614 34.8551 147.686 35.1574 149.607 34.5581C151.743 33.8842 153.475 32.1326 154.883 30.5016L159.492 33.8777C157.612 37.2591 155.053 39.2605 151.264 40.0718ZM198.596 12.2658H204.208V39.5968H203.813C200.933 39.5968 198.595 37.2478 198.595 34.349L198.596 12.2658ZM8.21457 39.5968C2.7245 39.5968 0 35.8432 0 30.5996V10.7113C0 7.81374 2.33716 5.46406 5.21993 5.46406H5.61383V12.2664H15.0975V17.6862H5.61323V31.2287C5.61323 33.5318 6.63604 34.1782 8.82445 34.1782H15.0975V39.598L8.21457 39.5968ZM40.8128 36.1419C38.0401 38.8148 34.7069 40.1542 30.8347 40.1542C26.9987 40.1542 23.6846 38.8136 20.9119 36.1419C18.1297 33.4595 16.7427 30.0452 16.7427 25.9313C16.7427 17.9043 22.8391 11.7078 30.8347 11.7078C34.6724 11.7078 37.9955 13.058 40.7855 15.7494C43.5849 18.4485 44.9838 21.8527 44.9838 25.9313C44.9838 30.0452 43.5951 33.4589 40.8128 36.1419ZM67.0565 18.8422C66.233 20.2307 65.5946 21.226 65.1454 21.8276C64.6503 22.4818 64.1612 23.0045 63.6769 23.3654C67.5777 24.6319 69.0307 27.349 69.0307 31.3966V39.5968H68.6368C65.7541 39.5968 63.4169 37.2478 63.4169 34.349V31.9528C63.4169 29.3318 62.2477 27.5539 59.4857 27.5539H54.3884V39.5968H53.9939C51.1117 39.5968 48.7763 37.2478 48.7763 34.349V5.2466C48.7763 2.34789 51.1117 0 53.9945 0H54.3884V22.0791H56.0472C57.8703 22.0791 59.068 21.4518 59.7559 20.2659L64.4706 12.267L70.8669 12.261L67.0565 18.8422ZM96.0318 36.1425C93.2579 38.8154 89.9247 40.1548 86.0531 40.1548C82.2177 40.1548 78.9035 38.8142 76.1297 36.1425C73.3474 33.4601 71.9605 30.0458 71.9605 25.9319C71.9605 17.9049 78.0575 11.7084 86.0531 11.7084C89.8908 11.7084 93.2133 13.0585 96.0038 15.75C98.8039 18.4491 100.202 21.8533 100.202 25.9319C100.202 30.0458 98.814 33.4595 96.0318 36.1425ZM91.9799 19.5711C90.4329 17.9443 88.4682 17.1276 86.0531 17.1276C80.8879 17.1276 77.7951 20.9135 77.7951 25.9319C77.7951 30.8804 80.9611 34.7356 86.0531 34.7356C91.1463 34.7356 94.3111 30.8804 94.3111 25.9319C94.3111 23.3044 93.5257 21.1961 91.9805 19.5711H91.9799ZM36.7621 19.5711C35.2151 17.9443 33.2504 17.1276 30.8359 17.1276C25.6701 17.1276 22.5779 20.9135 22.5779 25.9319C22.5779 30.8804 25.7433 34.7356 30.8353 34.7356C35.9285 34.7356 39.0927 30.8804 39.0927 25.9319C39.0927 23.3044 38.3085 21.1961 36.7621 19.5711Z" fill="#42B549"/>
</svg>
