<svg width="166" height="166" viewBox="0 0 166 166" fill="none" xmlns="http://www.w3.org/2000/svg">
<path fill-rule="evenodd" clip-rule="evenodd" d="M38.3157 39.9958C39.4956 37.0455 41.5324 34.5164 44.1633 32.7347C46.7943 30.9531 49.8987 30.0005 53.0762 30H112.924C116.101 30.0005 119.206 30.9531 121.837 32.7347C124.468 34.5164 126.504 37.0455 127.684 39.9958L132.428 51.8466C133.782 55.234 133.93 58.984 132.847 62.4676C131.765 65.9512 129.517 68.9566 126.481 70.9796L125.4 71.711V125.4H130.7C132.106 125.4 133.454 125.958 134.448 126.952C135.442 127.946 136 129.294 136 130.7C136 132.106 135.442 133.454 134.448 134.448C133.454 135.442 132.106 136 130.7 136H35.3C33.8944 136 32.5463 135.442 31.5523 134.448C30.5584 133.454 30 132.106 30 130.7C30 129.294 30.5584 127.946 31.5523 126.952C32.5463 125.958 33.8944 125.4 35.3 125.4H40.6V71.7057L39.5188 70.9796C36.4831 68.9566 34.2354 65.9512 33.1527 62.4676C32.07 58.984 32.2181 55.234 33.5722 51.8466L38.3157 39.9958ZM51.2 75.5588V125.4H67.1V104.2C67.1 99.9831 68.7752 95.9388 71.757 92.957C74.7388 89.9752 78.7831 88.3 83 88.3C87.2169 88.3 91.2612 89.9752 94.243 92.957C97.2248 95.9388 98.9 99.9831 98.9 104.2V125.4H114.8V75.5588C111.726 75.5588 108.652 74.6684 105.981 72.8876L98.9 68.1706L91.8192 72.8876C89.2075 74.6286 86.1388 75.5576 83 75.5576C79.8612 75.5576 76.7925 74.6286 74.1808 72.8876L67.1 68.1706L60.0192 72.8876C57.4076 74.629 54.339 75.5585 51.2 75.5588ZM88.3 125.4V104.2C88.3 102.794 87.7416 101.446 86.7477 100.452C85.7537 99.4584 84.4056 98.9 83 98.9C81.5944 98.9 80.2463 99.4584 79.2523 100.452C78.2584 101.446 77.7 102.794 77.7 104.2V125.4H88.3Z" fill="#37496A" stroke="#FAFAFA" stroke-width="3"/>
</svg>
