<svg width="35" height="35" viewBox="0 0 35 35" fill="none" xmlns="http://www.w3.org/2000/svg">
<g clip-path="url(#clip0_298_448)">
<path d="M0 17.5C0 12.8587 1.84375 8.40752 5.12563 5.12563C8.40752 1.84375 12.8587 0 17.5 0C22.1413 0 26.5925 1.84375 29.8744 5.12563C33.1563 8.40752 35 12.8587 35 17.5C35 22.1413 33.1563 26.5925 29.8744 29.8744C26.5925 33.1563 22.1413 35 17.5 35C12.8587 35 8.40752 33.1563 5.12563 29.8744C1.84375 26.5925 0 22.1413 0 17.5ZM9.12188 15.3125C9.28162 12.5946 9.73936 9.90238 10.4869 7.28437L10.7931 6.21688C9.15596 7.18973 7.75011 8.50722 6.67317 10.0779C5.59622 11.6485 4.87397 13.4347 4.55656 15.3125H9.12188ZM9.12188 19.6875H4.55656C4.87343 21.5655 5.5952 23.352 6.67177 24.923C7.74835 26.4941 9.15392 27.812 10.7909 28.7853L10.4869 27.7156C9.73936 25.0976 9.28162 22.4054 9.12188 19.6875ZM15.8375 30.52C16.9414 30.661 18.0586 30.661 19.1625 30.52L20.3066 26.5147C20.9453 24.2769 21.3413 21.9866 21.4944 19.6875H13.5056C13.6587 21.9888 14.0547 24.2769 14.6934 26.5125L15.8397 30.52H15.8375ZM13.5078 15.3125H21.4966C21.3426 13.002 20.9444 10.7142 20.3088 8.4875L19.1625 4.48C18.0601 4.33942 16.9443 4.33942 15.8419 4.48L14.6956 8.48531C14.0591 10.7127 13.6602 13.0011 13.5056 15.3125H13.5078ZM24.5153 27.7156L24.2091 28.7853C25.8461 27.812 27.2517 26.4941 28.3282 24.923C29.4048 23.352 30.1266 21.5655 30.4434 19.6875H25.8781C25.7184 22.4054 25.2628 25.0976 24.5153 27.7156ZM24.5153 7.28437C25.2656 9.91375 25.7206 12.6066 25.8803 15.3125H30.4456C30.1285 13.4349 29.4066 11.6488 28.33 10.0782C27.2534 8.50755 25.848 7.18997 24.2112 6.21688L24.5153 7.28437Z" fill="#37496A"/>
</g>
<defs>
<clipPath id="clip0_298_448">
<rect width="35" height="35" fill="white"/>
</clipPath>
</defs>
</svg>
