<svg width="37" height="37" viewBox="0 0 37 37" fill="none" xmlns="http://www.w3.org/2000/svg">
<path d="M33.9167 12.3314C33.9164 12.0562 33.8424 11.7862 33.7026 11.5492C33.5627 11.3123 33.3619 11.1171 33.1212 10.9839L19.2122 3.27561C18.9838 3.14928 18.7271 3.08301 18.4661 3.08301C18.2051 3.08301 17.9483 3.14928 17.7199 3.27561L3.87883 10.9223C3.63838 11.0554 3.4379 11.2504 3.29815 11.4871C3.1584 11.7238 3.08446 11.9935 3.08399 12.2683C3.08351 12.5432 3.15653 12.8132 3.29547 13.0503C3.43441 13.2875 3.63422 13.4831 3.87421 13.6171L17.7831 21.3871C18.0123 21.5151 18.2704 21.5824 18.5329 21.5826C18.7955 21.5829 19.0537 21.5161 19.2832 21.3887L33.1242 13.6803C33.3647 13.5466 33.5649 13.351 33.7043 13.1138C33.8436 12.8766 33.917 12.6065 33.9167 12.3314ZM18.5355 18.2745L7.80083 12.2789L18.4645 6.3867L29.2007 12.336L18.5355 18.2745Z" fill="white"/>
<path d="M31.6273 17.1523L18.5 24.4444L5.37269 17.1523L3.87573 19.8472L17.7507 27.5555C17.9797 27.6827 18.2373 27.7494 18.4992 27.7494C18.7611 27.7494 19.0187 27.6827 19.2477 27.5555L33.1227 19.8472L31.6273 17.1523Z" fill="white"/>
<path d="M31.6273 23.3193L18.5 30.6114L5.37269 23.3193L3.87573 26.0142L17.7507 33.7225C17.9797 33.8497 18.2373 33.9164 18.4992 33.9164C18.7611 33.9164 19.0187 33.8497 19.2477 33.7225L33.1227 26.0142L31.6273 23.3193Z" fill="white"/>
</svg>
