<svg width="37" height="37" viewBox="0 0 37 37" fill="none" xmlns="http://www.w3.org/2000/svg">
<path d="M13.875 4.625L5.18 7.55417C4.85625 7.66208 4.625 7.93958 4.625 8.29417V31.6042C4.625 31.8086 4.70621 32.0047 4.85077 32.1492C4.99533 32.2938 5.1914 32.375 5.39583 32.375L5.6425 32.3287L13.875 29.1375L23.125 32.375L31.82 29.4458C32.1437 29.3379 32.375 29.0604 32.375 28.7058V5.39583C32.375 5.1914 32.2938 4.99533 32.1492 4.85077C32.0047 4.70621 31.8086 4.625 31.6042 4.625L31.3575 4.67125L23.125 7.8625L13.875 4.625ZM12.3333 8.40208V26.4396L7.70833 28.2279V9.95917L12.3333 8.40208ZM15.4167 8.43292L21.5833 10.5912V28.5671L15.4167 26.4087V8.43292ZM29.2917 8.7875V27.0408L24.6667 28.5979V10.5758L29.2917 8.7875ZM11.5008 9.7125L8.58708 10.7454V14.06L11.5008 13.0271V9.7125ZM11.5008 13.9521L8.58708 14.985V18.2996L11.5008 17.2667V13.9521ZM11.5008 18.1917L8.58708 19.2246V22.5392L11.5008 21.5062V18.1917ZM11.5008 22.4312L8.58708 23.4642V26.7788L11.5008 25.7458V22.4312Z" fill="white"/>
</svg>
