<svg width="43" height="43" viewBox="0 0 43 43" fill="none" xmlns="http://www.w3.org/2000/svg">
<path d="M21.5 20.6038C20.3121 20.6038 19.1728 20.1319 18.3328 19.2919C17.4928 18.4519 17.0209 17.3126 17.0209 16.1247C17.0209 14.9367 17.4928 13.7974 18.3328 12.9574C19.1728 12.1174 20.3121 11.6455 21.5 11.6455C22.688 11.6455 23.8273 12.1174 24.6673 12.9574C25.5073 13.7974 25.9792 14.9367 25.9792 16.1247C25.9792 16.7129 25.8634 17.2953 25.6383 17.8388C25.4132 18.3822 25.0832 18.876 24.6673 19.2919C24.2514 19.7079 23.7576 20.0378 23.2141 20.2629C22.6707 20.488 22.0883 20.6038 21.5 20.6038ZM21.5 3.58301C18.1738 3.58301 14.9838 4.90436 12.6317 7.25638C10.2797 9.6084 8.95837 12.7984 8.95837 16.1247C8.95837 25.5309 21.5 39.4163 21.5 39.4163C21.5 39.4163 34.0417 25.5309 34.0417 16.1247C34.0417 12.7984 32.7204 9.6084 30.3683 7.25638C28.0163 4.90436 24.8263 3.58301 21.5 3.58301Z" fill="#37496A"/>
</svg>
