<svg width="166" height="166" viewBox="0 0 166 166" fill="none" xmlns="http://www.w3.org/2000/svg">
<g clip-path="url(#clip0_364_277)">
<path d="M134.875 31.125C129.223 36.5318 122.501 40.695 115.142 43.3467C107.381 44.7162 85.905 34.7562 75.3225 44.9237C73.5588 46.6875 71.38 48.4513 69.0975 50.215C64.1175 48.0363 56.44 44.7162 50.8375 41.5C45.235 38.2838 31.125 31.125 31.125 31.125L0 67.4375C0 67.4375 7.6775 77.8125 12.45 84.66C15.5625 89.225 19.4012 96.1763 21.8912 100.845L18.3638 104.995C17.525 106.675 17.2244 108.572 17.5029 110.428C17.7814 112.285 18.6254 114.01 19.92 115.37C21.4184 116.5 23.2448 117.109 25.1214 117.105C26.9979 117.102 28.8219 116.485 30.3158 115.349C29.7611 115.999 29.3413 116.752 29.0808 117.566C28.8204 118.379 28.7246 119.236 28.799 120.087C28.8733 120.938 29.1164 121.765 29.514 122.521C29.9116 123.277 30.4557 123.946 31.1146 124.49C32.701 125.409 34.5027 125.891 36.336 125.887C38.1694 125.884 39.9691 125.394 41.5519 124.469C40.3665 125.946 39.7178 127.783 39.7122 129.677C39.7065 131.571 40.3442 133.411 41.5207 134.896C43.0499 135.427 44.6812 135.596 46.2869 135.391C47.8925 135.186 49.4288 134.612 50.7752 133.713C50.1012 135.301 49.9258 137.056 50.2723 138.746C50.6188 140.436 51.4708 141.981 52.7154 143.175C54.4714 143.948 56.394 144.266 58.3053 144.099C60.2166 143.932 62.0551 143.286 63.6506 142.221L69.0041 137.375C73.9011 142.252 80.6553 145.271 88.1149 145.271L88.7477 145.26C91.2064 145.052 93.5618 144.178 95.5614 142.732C97.561 141.286 99.1293 139.323 100.098 137.054C101.613 137.635 103.335 138.029 105.161 138.029C107.609 138.029 109.882 137.324 111.801 136.11C117.87 132.095 116.418 128.982 116.418 128.982C118.576 129.911 120.973 130.131 123.265 129.611C125.556 129.091 127.623 127.857 129.169 126.087C130.775 124.444 131.788 122.313 132.047 120.03C132.306 117.747 131.797 115.443 130.601 113.482C130.667 113.519 130.742 113.537 130.818 113.534C135.186 113.534 138.983 111.127 140.965 107.578C141.944 105.057 142.276 102.331 141.929 99.6486C141.583 96.9662 140.57 94.4134 138.984 92.2234L139.015 92.2752C147.522 90.6152 147.211 86.3615 151.361 80.1365C155.285 75.0519 160.176 70.7927 165.751 67.6035L134.875 31.125ZM134.356 104.373C129.791 108.938 126.264 106.966 118.482 101.052C110.701 95.1387 95.2425 84.0375 95.2425 84.0375C95.8754 87.2019 97.3383 89.9512 99.4029 92.1404C102.713 95.865 112.569 104.372 117.238 108.73C120.143 111.427 127.613 116.822 123.255 120.972C118.898 125.122 115.474 120.973 108.315 115.163C101.156 109.353 85.1787 95.035 85.1787 95.035C85.0927 96.4072 85.2978 97.7822 85.7806 99.0695C86.2634 100.357 87.0129 101.528 87.98 102.505C89.7437 104.58 99.6 114.125 103.75 118.482C107.9 122.84 111.531 125.434 108.004 128.857C104.476 132.281 97.3175 126.886 93.375 122.84C87.2538 116.926 75.115 105.929 75.115 105.929L75.1046 106.479C75.1046 109.425 76.1214 112.123 77.8333 114.26C80.8213 118.182 86.6312 123.265 90.1587 127.208C93.6862 131.15 95.7612 134.47 90.1587 137.583C84.5562 140.695 76.2562 133.018 72.625 129.283V129.262C72.6363 128.236 72.2666 127.241 71.5875 126.471C70.3441 125.326 68.813 124.539 67.1575 124.196C65.502 123.852 63.7843 123.964 62.1877 124.521C62.843 123.932 63.3681 123.213 63.7295 122.41C64.0908 121.606 64.2805 120.736 64.2864 119.855C64.2922 118.975 64.1141 118.102 63.7635 117.294C63.4128 116.486 62.8973 115.76 62.25 115.163C60.8881 114.131 59.2259 113.573 57.5173 113.575C55.8086 113.577 54.1476 114.138 52.788 115.173C53.4755 114.516 54.0062 113.713 54.3407 112.823C54.6752 111.933 54.8049 110.979 54.7202 110.032C54.6354 109.085 54.3385 108.17 53.8513 107.353C53.3641 106.537 52.6993 105.841 51.9061 105.317C50.0488 104.15 47.8694 103.601 45.681 103.75C43.4926 103.9 41.4077 104.738 39.7259 106.147C40.8499 104.784 41.4041 103.04 41.2726 101.279C41.1411 99.5177 40.3342 97.8754 39.0204 96.695C37.3842 95.1812 35.3039 94.2346 33.0877 93.9954C30.8715 93.7562 28.6371 94.2371 26.7156 95.367L19.8162 83.7159C15.0437 76.1421 9.44125 68.2571 9.44125 68.2571L33.0963 39.5184C33.0963 39.5184 41.5 44.7059 48.4513 48.6484C51.875 50.6196 57.7887 53.2134 62.25 55.2884C55.195 60.5796 49.2813 65.6634 51.045 69.1909C54.1858 71.4527 57.9429 72.7007 61.8128 72.7674C65.6828 72.8342 69.4807 71.7166 72.6976 69.5644C76.8224 66.8147 81.6741 65.3589 86.6313 65.3833C90.2314 65.3833 93.6551 66.1303 96.7573 67.4894C102.505 71.3696 113.088 80.9146 122.736 86.9321C134.875 95.7509 137.261 101.457 134.356 104.362V104.373Z" fill="#37496A" stroke="#FAFAFA" stroke-width="3"/>
</g>
<defs>
<clipPath id="clip0_364_277">
<rect width="166" height="166" fill="white"/>
</clipPath>
</defs>
</svg>
