<svg width="37" height="37" viewBox="0 0 37 37" fill="none" xmlns="http://www.w3.org/2000/svg">
<path d="M10.0208 14.6458L15.4167 10.0208M21.5833 8.47917L26.2083 10.7917M28.5208 15.4167L24.6667 26.2083M20.8125 26.9792L10.0208 19.2708M15.4167 7.70833C15.4167 8.52608 15.7415 9.31034 16.3198 9.88858C16.898 10.4668 17.6822 10.7917 18.5 10.7917C19.3178 10.7917 20.102 10.4668 20.6802 9.88858C21.2585 9.31034 21.5833 8.52608 21.5833 7.70833C21.5833 6.89058 21.2585 6.10632 20.6802 5.52809C20.102 4.94985 19.3178 4.625 18.5 4.625C17.6822 4.625 16.898 4.94985 16.3198 5.52809C15.7415 6.10632 15.4167 6.89058 15.4167 7.70833ZM26.2083 12.3333C26.2083 13.1511 26.5332 13.9353 27.1114 14.5136C27.6897 15.0918 28.4739 15.4167 29.2917 15.4167C30.1094 15.4167 30.8937 15.0918 31.4719 14.5136C32.0501 13.9353 32.375 13.1511 32.375 12.3333C32.375 11.5156 32.0501 10.7313 31.4719 10.1531C30.8937 9.57485 30.1094 9.25 29.2917 9.25C28.4739 9.25 27.6897 9.57485 27.1114 10.1531C26.5332 10.7313 26.2083 11.5156 26.2083 12.3333ZM4.625 16.9583C4.625 17.7761 4.94985 18.5603 5.52809 19.1386C6.10632 19.7168 6.89058 20.0417 7.70833 20.0417C8.52608 20.0417 9.31034 19.7168 9.88858 19.1386C10.4668 18.5603 10.7917 17.7761 10.7917 16.9583C10.7917 16.1406 10.4668 15.3563 9.88858 14.7781C9.31034 14.1999 8.52608 13.875 7.70833 13.875C6.89058 13.875 6.10632 14.1999 5.52809 14.7781C4.94985 15.3563 4.625 16.1406 4.625 16.9583ZM20.0417 29.2917C20.0417 30.1094 20.3665 30.8937 20.9448 31.4719C21.523 32.0501 22.3072 32.375 23.125 32.375C23.9428 32.375 24.727 32.0501 25.3052 31.4719C25.8835 30.8937 26.2083 30.1094 26.2083 29.2917C26.2083 28.4739 25.8835 27.6897 25.3052 27.1114C24.727 26.5332 23.9428 26.2083 23.125 26.2083C22.3072 26.2083 21.523 26.5332 20.9448 27.1114C20.3665 27.6897 20.0417 28.4739 20.0417 29.2917Z" stroke="white" stroke-width="2" stroke-linecap="round" stroke-linejoin="round"/>
</svg>
