<svg width="37" height="37" viewBox="0 0 37 37" fill="none" xmlns="http://www.w3.org/2000/svg">
<g clip-path="url(#clip0_300_268)">
<path d="M7.77 11.84C3.49983 11.84 0 15.3291 0 19.5878C0 21.238 0.52688 22.7716 1.41895 24.0322L6.82206 33.3725C7.57871 34.3612 8.08191 34.1736 8.71128 33.3207L14.6705 23.179C14.7908 22.9607 14.8851 22.7291 14.9676 22.4923C15.3455 21.5706 15.5399 20.584 15.54 19.5878C15.54 15.3291 12.0413 11.84 7.77 11.84ZM7.77 15.4704C10.0699 15.4704 11.8992 17.2949 11.8992 19.5882C11.8992 21.8814 10.0696 23.7052 7.77 23.7052C5.47045 23.7052 3.6408 21.8811 3.6408 19.5882C3.6408 17.2953 5.47082 15.4704 7.77 15.4704ZM32.4675 0C29.9767 0 27.935 2.03537 27.935 4.51992C27.935 5.48229 28.2421 6.37695 28.7627 7.11214L31.9147 12.5608C32.3561 13.1372 32.6495 13.0277 33.0166 12.5304L36.4927 6.61412C36.563 6.48721 36.6182 6.35216 36.6659 6.21378C36.887 5.67646 37.0005 5.10096 37 4.51992C37 2.035 34.9591 0 32.4675 0ZM32.4675 2.11788C33.8091 2.11788 34.8762 3.182 34.8762 4.51992C34.8762 5.85784 33.8091 6.92122 32.4675 6.92122C31.1259 6.92122 30.0588 5.85747 30.0588 4.51992C30.0588 3.18237 31.1263 2.11788 32.4675 2.11788Z" fill="white"/>
<path fill-rule="evenodd" clip-rule="evenodd" d="M32.6373 13.8428C31.8059 13.8613 30.9723 13.8964 30.1372 13.9582L30.266 16.0051C31.0681 15.9469 31.8717 15.9095 32.6758 15.8929L32.6373 13.8428ZM28.2065 14.1462C26.9226 14.3056 25.6276 14.5328 24.3474 14.898L24.8295 16.8816C25.9928 16.5501 27.1983 16.3358 28.4226 16.1838L28.2065 14.1462ZM22.4305 15.5847C22.0469 15.754 21.6755 15.9497 21.319 16.1704L21.3175 16.1723L21.3153 16.173C20.8065 16.4935 20.2704 16.9001 19.8327 17.491C19.5156 17.9191 19.2562 18.4604 19.1956 19.1005L21.0807 19.3095C21.0948 19.1593 21.1717 18.961 21.3101 18.7745H21.3108V18.7738C21.534 18.4718 21.8684 18.1977 22.2662 17.9468L22.2677 17.9461C22.5514 17.7715 22.8466 17.6162 23.1512 17.4814L22.4305 15.5847ZM21.46 20.2227L20.2378 21.7896C20.5276 22.0546 20.8313 22.2581 21.1247 22.4283L21.1284 22.4301L21.1321 22.4323C22.106 22.9862 23.1102 23.2989 24.0411 23.5956L24.5761 21.6279C23.6455 21.3312 22.7683 21.0448 22.0164 20.6178C21.8011 20.4928 21.6124 20.3622 21.46 20.2227ZM26.3939 22.1815L25.8715 24.1525L26.1186 24.2294L26.422 24.3264C27.4262 24.6531 28.3882 25.002 29.2481 25.4848L30.1205 23.6644C29.0808 23.0802 28.0016 22.6984 26.9615 22.3602L26.9585 22.3594L26.647 22.2599L26.3939 22.1815ZM31.8947 25.0305L30.5542 26.4809C30.8709 26.8239 31.1081 27.2364 31.2235 27.6626L31.2243 27.6649L31.225 27.6682C31.3626 28.1658 31.363 28.7512 31.2553 29.3424L33.1142 29.7391C33.2659 28.9044 33.2903 27.9879 33.041 27.0832C32.8238 26.2833 32.4094 25.5884 31.8947 25.0305ZM30.6064 30.5782C30.4012 30.7943 30.1749 30.9892 29.9307 31.1599H29.93C29.264 31.6283 28.4914 31.9813 27.6708 32.2847L28.2828 34.225C29.1804 33.8931 30.102 33.4861 30.9634 32.88L30.9656 32.8782L30.9667 32.8774C31.3204 32.6296 31.6476 32.3461 31.9432 32.0312L30.6064 30.5782ZM25.9296 32.8312C24.7407 33.1509 23.5257 33.3943 22.2958 33.6008L22.5859 35.628C23.8516 35.4153 25.1226 35.1611 26.3858 34.8214L25.9296 32.8312ZM20.4454 33.8805C19.2074 34.0496 17.9627 34.1876 16.7143 34.3053L16.8779 36.3484C18.1455 36.2293 19.4153 36.089 20.6833 35.9155L20.4454 33.8805ZM14.8381 34.4662C13.5871 34.5654 12.3332 34.646 11.0781 34.7141L11.1728 36.7624C12.4401 36.694 13.7085 36.6122 14.9764 36.5116L14.8381 34.4662ZM9.19223 34.8066C8.44002 34.8418 7.68596 34.8706 6.93005 34.8973L6.99221 36.9474C7.75285 36.9213 8.51333 36.8909 9.27363 36.8564L9.19223 34.8066Z" fill="white"/>
</g>
<defs>
<clipPath id="clip0_300_268">
<rect width="37" height="37" fill="white"/>
</clipPath>
</defs>
</svg>
