<svg width="273" height="273" viewBox="0 0 273 273" fill="none" xmlns="http://www.w3.org/2000/svg">
<circle cx="136.5" cy="101.5" r="44.5" fill="white"/>
<path d="M216.125 102.375C216.125 91.9185 214.065 81.5644 210.064 71.9038C206.062 62.2433 200.197 53.4655 192.803 46.0716C185.41 38.6778 176.632 32.8126 166.971 28.8111C157.311 24.8096 146.957 22.75 136.5 22.75C126.043 22.75 115.689 24.8096 106.029 28.8111C96.3683 32.8126 87.5905 38.6778 80.1966 46.0716C72.8028 53.4655 66.9376 62.2433 62.9361 71.9038C58.9346 81.5644 56.875 91.9185 56.875 102.375C56.875 118.152 61.5274 132.826 69.4444 145.202H69.3534L136.5 250.25L203.647 145.202H203.567C211.768 132.423 216.126 117.559 216.125 102.375ZM136.5 136.5C127.449 136.5 118.77 132.905 112.37 126.505C105.97 120.105 102.375 111.426 102.375 102.375C102.375 93.3245 105.97 84.6447 112.37 78.245C118.77 71.8453 127.449 68.25 136.5 68.25C145.551 68.25 154.23 71.8453 160.63 78.245C167.03 84.6447 170.625 93.3245 170.625 102.375C170.625 111.426 167.03 120.105 160.63 126.505C154.23 132.905 145.551 136.5 136.5 136.5Z" fill="#C92929"/>
</svg>
